# xmcd
# 
# Track frame offsets:
#     150
#     23082
#     31707
#     49320
#     68077
#     87282
#     111730
#     139785
#     146007
#     167842
#     188440
#     204065
#     224377
#     240577
#     277322
# 
# Disc length: 3777
# 
# Revision: 9
# Processed by: cddbd v1.5.2PL0 Copyright (c) Steve Scherf et al.
# Submitted via: fre:ac v1.0.31
# 
DISCID=da0ebf0f
DTITLE=Various Artist - BOLERO! Be HAPPY LIVE
DYEAR=2004
DGENRE=New Age
TTITLE0=押尾コータロー - ボレロ
TTITLE1=押尾コータロー - ブルー・ホール
TTITLE2=押尾コータロー - AQUA-MARINE
TTITLE3=押尾コータロー - Blue sky
TTITLE4=押尾コータロー - ミスティー・ナイト
TTITLE5=押尾コータロー - Breeze
TTITLE6=押尾コータロー - Merry Christmas Mr.Lawrence
TTITLE7=押尾コータロー - オールド・フレンド
TTITLE8=押尾コータロー - Dear...
TTITLE9=押尾コータロー - 見上げてごらん夜の星を
TTITLE10=押尾コータロー - Busy 2
TTITLE11=押尾コータロー - HARD RAIN
TTITLE12=押尾コータロー - 翼 -you are the HERO-
TTITLE13=押尾コータロー - ちいさな輝き
TTITLE14=押尾コータロー - Track Data
EXTD=YEAR: 2004
EXTT0=
EXTT1=
EXTT2=
EXTT3=
EXTT4=
EXTT5=
EXTT6=
EXTT7=
EXTT8=
EXTT9=
EXTT10=
EXTT11=
EXTT12=
EXTT13=
EXTT14=
PLAYORDER=
